<?xml version="1.0" encoding="UTF-8" standalone="no"?>
<!DOCTYPE svg PUBLIC "-//W3C//DTD SVG 1.1//EN" "http://www.w3.org/Graphics/SVG/1.1/DTD/svg11.dtd">
<svg width="100%" height="100%" viewBox="0 0 170 167" version="1.1" xmlns="http://www.w3.org/2000/svg" xmlns:xlink="http://www.w3.org/1999/xlink" xml:space="preserve" xmlns:serif="http://www.serif.com/" style="fill-rule:evenodd;clip-rule:evenodd;stroke-linejoin:round;stroke-miterlimit:2;">
    <g transform="matrix(0.764634,0.000144646,-0.000145022,0.766622,-394.178,-241.445)">
        <g>
            <path d="M630.023,413.303L630.023,395.069C630.023,358.789 646.616,340.648 679.804,340.648C689.085,340.648 699.632,342.191 711.445,345.277L711.445,367.158C698.976,363.324 688.991,361.407 681.491,361.407C672.398,361.407 666.187,363.581 662.859,367.929C659.53,372.277 657.866,380.342 657.866,392.124L657.866,413.303L630.023,413.303Z" style="fill:#65778e;"/>
            <g transform="matrix(1,2.71051e-20,-2.71051e-20,0.997407,127.408,-24.7583)">
                <rect x="501.956" y="439.465" width="55.674" height="15.835" style="fill:#65778e;"/>
            </g>
            <g transform="matrix(6.60691,0,0,6.58978,-2432.15,-2090.28)">
                <path d="M464.087,390.645C461.576,392.958 459.156,394.114 456.829,394.114C454.913,394.114 453.324,393.515 452.061,392.316C450.798,391.117 450.167,389.602 450.167,387.771C450.167,385.246 451.228,383.305 453.349,381.95C455.47,380.595 458.511,379.917 462.469,379.917L463.47,379.917L463.47,377.129C463.47,374.447 462.093,373.106 459.341,373.106C457.127,373.106 454.736,373.787 452.168,375.15L452.168,371.68C454.992,370.531 457.638,369.956 460.107,369.956C462.689,369.956 464.594,370.538 465.822,371.702C467.049,372.865 467.663,374.674 467.663,377.129L467.663,387.601C467.663,388.816 467.695,394.08 467.695,394.08C467.705,394.072 467.225,394.105 466.548,394.08C464.785,394.015 464.626,392.958 464.087,390.645ZM463.47,388.367L463.47,382.386L462.065,382.344C459.766,382.344 457.907,382.78 456.489,383.653C455.07,384.525 454.36,385.671 454.36,387.09C454.36,388.098 454.715,388.949 455.424,389.644C456.134,390.34 456.999,390.687 458.021,390.687C459.766,390.687 461.583,389.914 463.47,388.367Z" style="fill:#65778e;fill-rule:nonzero;"/>
            </g>
        </g>
    </g>
</svg>
